<svg width="52" height="53" viewBox="0 0 52 53" fill="none" xmlns="http://www.w3.org/2000/svg">
<path d="M18.8 50.5H33.2C45.2 50.5 50 45.7 50 33.7V19.3C50 7.3 45.2 2.5 33.2 2.5H18.8C6.8 2.5 2 7.3 2 19.3V33.7C2 45.7 6.8 50.5 18.8 50.5Z" stroke="white" stroke-width="3.84613" stroke-linecap="round" stroke-linejoin="round"/>
<path d="M26 34.9C30.6392 34.9 34.4 31.1392 34.4 26.5C34.4 21.8608 30.6392 18.1 26 18.1C21.3608 18.1 17.6 21.8608 17.6 26.5C17.6 31.1392 21.3608 34.9 26 34.9Z" stroke="white" stroke-width="3.84613" stroke-linecap="round" stroke-linejoin="round"/>
<path d="M39.5265 14.4999H39.5543" stroke="white" stroke-width="5.12817" stroke-linecap="round" stroke-linejoin="round"/>
</svg>
