<svg width="53" height="53" viewBox="0 0 53 53" fill="none" xmlns="http://www.w3.org/2000/svg">
<path d="M35.3334 17.6666C38.8475 17.6666 42.2177 19.0626 44.7025 21.5475C47.1874 24.0323 48.5834 27.4025 48.5834 30.9166V46.375H39.75V30.9166C39.75 29.7453 39.2847 28.6219 38.4564 27.7936C37.6281 26.9653 36.5047 26.5 35.3334 26.5C34.162 26.5 33.0386 26.9653 32.2103 27.7936C31.382 28.6219 30.9167 29.7453 30.9167 30.9166V46.375H22.0834V30.9166C22.0834 27.4025 23.4794 24.0323 25.9642 21.5475C28.4491 19.0626 31.8193 17.6666 35.3334 17.6666V17.6666Z" stroke="white" stroke-width="2" stroke-linecap="round" stroke-linejoin="round"/>
<path d="M13.25 19.875H4.41663V46.375H13.25V19.875Z" stroke="white" stroke-width="2" stroke-linecap="round" stroke-linejoin="round"/>
<path d="M8.83329 13.25C11.2726 13.25 13.25 11.2726 13.25 8.83329C13.25 6.39403 11.2726 4.41663 8.83329 4.41663C6.39403 4.41663 4.41663 6.39403 4.41663 8.83329C4.41663 11.2726 6.39403 13.25 8.83329 13.25Z" stroke="white" stroke-width="2" stroke-linecap="round" stroke-linejoin="round"/>
</svg>
