<svg width="50" height="51" viewBox="0 0 50 51" fill="none" xmlns="http://www.w3.org/2000/svg">
<path d="M25 2.5C37.703 2.5 48 12.797 48 25.5C48 38.203 37.703 48.5 25 48.5C12.297 48.5 2 38.203 2 25.5C2 12.797 12.297 2.5 25 2.5ZM32.934 34.875C33.357 33.577 35.339 20.641 35.584 18.092C35.658 17.32 35.414 16.807 34.936 16.578C34.358 16.3 33.502 16.439 32.509 16.797C31.147 17.288 13.735 24.681 12.729 25.109C11.775 25.514 10.873 25.956 10.873 26.596C10.873 27.046 11.14 27.299 11.876 27.562C12.642 27.835 14.571 28.42 15.71 28.734C16.807 29.037 18.056 28.774 18.756 28.339C19.498 27.878 28.061 22.148 28.676 21.646C29.29 21.144 29.78 21.787 29.278 22.29C28.776 22.792 22.898 28.497 22.123 29.287C21.182 30.246 21.85 31.24 22.481 31.638C23.202 32.092 28.387 35.57 29.168 36.128C29.949 36.686 30.741 36.939 31.466 36.939C32.191 36.939 32.573 35.984 32.934 34.875Z" fill="white"/>
</svg>
