<svg width="48" height="49" viewBox="0 0 48 49" fill="none" xmlns="http://www.w3.org/2000/svg">
<path d="M1.68524 48.5055C1.23883 48.5055 0.814675 48.327 0.502189 48.0145C0.078101 47.5904 -0.100351 46.9654 0.055892 46.3851L2.86829 35.8722C0.993372 32.3902 0.0112065 28.4618 0.0112065 24.4888C0.0112065 11.2528 10.7696 0.494385 24.0056 0.494385C37.2416 0.494385 48 11.2528 48 24.4888C48 37.7248 37.2416 48.4832 24.0056 48.4832C19.9656 48.4832 16.015 47.4788 12.4884 45.5592L2.13167 48.4386C1.97543 48.4832 1.84148 48.5055 1.68524 48.5055ZM12.7115 42.0996C13.0017 42.0996 13.2919 42.1891 13.5597 42.323C16.7069 44.1756 20.3227 45.1575 24.0056 45.1575C35.389 45.1575 44.6519 35.8945 44.6519 24.5111C44.6519 13.1278 35.389 3.86479 24.0056 3.86479C12.6222 3.86479 3.35927 13.1278 3.35927 24.5111C3.35927 28.1493 4.31902 31.6983 6.12698 34.8231C6.35018 35.2026 6.41719 35.6713 6.30558 36.0954L4.07354 44.4432L12.2874 42.1665C12.4214 42.1219 12.5776 42.0996 12.7115 42.0996Z" fill="white"/>
<path d="M30.1217 37.3667C28.7378 37.3667 27.3093 37.0542 25.8139 36.4069C24.4077 35.8042 23.0015 35.0007 21.6399 33.9963C20.3007 33.0142 18.984 31.8982 17.7787 30.6929C16.5734 29.4653 15.4572 28.1707 14.4751 26.8314C13.4707 25.4253 12.6672 24.0414 12.0868 22.6798C11.4619 21.2067 11.1494 19.7559 11.1494 18.372C11.1494 17.3899 11.3279 16.4525 11.6627 15.582C12.0199 14.6668 12.6002 13.8409 13.3591 13.1267C14.7876 11.7205 16.8412 11.2072 18.4706 11.9884C19.0286 12.2339 19.4973 12.6357 19.8545 13.1714L22.4435 16.8096C22.7113 17.1667 22.9124 17.5461 23.0687 17.9256C23.2472 18.372 23.3588 18.8184 23.3588 19.2425C23.3588 19.8229 23.2024 20.4032 22.8899 20.9165C22.689 21.2513 22.3988 21.6531 22.0194 22.0326L21.7292 22.345C21.8631 22.5236 22.0194 22.7468 22.2649 23.0147C22.7336 23.5503 23.247 24.1307 23.805 24.6887C24.363 25.2244 24.921 25.7601 25.4791 26.2288C25.7469 26.452 25.9703 26.6306 26.1489 26.7422L26.4611 26.4297C26.8629 26.0279 27.2649 25.7154 27.6667 25.5145C28.4032 25.0458 29.5414 24.9342 30.5458 25.3583C30.9029 25.4922 31.26 25.6931 31.6395 25.961L35.3672 28.5948C35.8806 28.9519 36.2821 29.4429 36.55 30.0009C36.7732 30.559 36.8627 31.05 36.8627 31.5634C36.8627 32.233 36.7062 32.8803 36.4161 33.5052C36.1259 34.0856 35.7911 34.5989 35.3893 35.0677C34.6751 35.8489 33.8494 36.4292 32.9566 36.8087C32.0638 37.1881 31.1038 37.3667 30.1217 37.3667ZM16.8411 15.0016C16.7072 15.0016 16.2609 15.0016 15.7029 15.5596C15.2788 15.9614 14.9885 16.3855 14.7877 16.8542C14.5868 17.323 14.4975 17.8587 14.4975 18.3944C14.4975 19.3318 14.7207 20.3362 15.1671 21.4076C15.6358 22.5236 16.3278 23.7066 17.176 24.8896C18.0465 26.0726 19.0286 27.2555 20.1224 28.3492C21.2161 29.4206 22.3765 30.425 23.5818 31.3178C24.7425 32.166 25.9257 32.8356 27.1087 33.349C28.805 34.0856 30.3672 34.2641 31.6395 33.7285C32.0859 33.5499 32.4877 33.2374 32.8894 32.8356C33.0903 32.6124 33.2468 32.3892 33.3807 32.0991C33.4477 31.9428 33.4921 31.7643 33.4921 31.608C33.4921 31.5634 33.4921 31.4964 33.4251 31.3625L29.6976 28.7733C29.5414 28.6617 29.3851 28.5724 29.2512 28.5278C29.1619 28.5724 29.0282 28.6394 28.7827 28.8849L27.9345 29.7331C27.2872 30.3804 26.2605 30.559 25.4346 30.2688L25.0329 30.0902C24.5195 29.8224 23.9389 29.4206 23.2916 28.8626C22.6667 28.3269 22.0643 27.7689 21.417 27.1439C20.792 26.4966 20.234 25.894 19.6983 25.269C19.1178 24.5771 18.7161 24.0191 18.4482 23.5503L18.2028 22.97C18.1358 22.7468 18.1134 22.5013 18.1134 22.2781C18.1134 21.6531 18.3367 21.0951 18.7608 20.6487L19.609 19.7782C19.8545 19.5327 19.9438 19.3988 19.9885 19.3095C19.9215 19.1532 19.8322 19.0193 19.7206 18.8631L17.1089 15.1802L16.8411 15.0016Z" fill="white"/>
</svg>
